<svg xmlns="http://www.w3.org/2000/svg" width="171.516" height="54.045" viewBox="0 0 171.516 54.045">
  <g id="Groupe_106" data-name="Groupe 106" transform="translate(-143.687 -456.656)">
    <g id="Groupe_97" data-name="Groupe 97" transform="translate(143.687 456.656)">
      <g id="Groupe_96" data-name="Groupe 96">
        <path id="Tracé_29" data-name="Tracé 29" d="M178.425,471.955c-1.481-5.86-5-8.16-9.858-10.375l-10.8-4.924-.011.333a8.386,8.386,0,0,0,4.965,7.806l6.712,3.061a18.028,18.028,0,0,1,7.734,6.468l2.346,3.6s.009,0,.008,0C179.475,477.61,178.784,473.374,178.425,471.955Z" transform="translate(-155.119 -456.656)" fill="#511941"/>
        <path id="Tracé_30" data-name="Tracé 30" d="M168.027,495.138c-1.481-5.86-5-8.159-9.858-10.375l-14.466-6.6-.011.333a8.386,8.386,0,0,0,4.965,7.806l10.383,4.736a18.028,18.028,0,0,1,7.734,6.468l2.346,3.6s.009,0,.008,0C169.077,500.793,168.386,496.557,168.027,495.138Z" transform="translate(-143.687 -474.135)" fill="#e90142"/>
      </g>
    </g>
    <g id="Groupe_99" data-name="Groupe 99" transform="translate(151.236 456.943)">
      <g id="Groupe_98" data-name="Groupe 98" transform="translate(0 0)">
        <path id="Tracé_31" data-name="Tracé 31" d="M204.686,481.969l11.6-19.613c-3.913-.695-4.5-.409-6.383,2.836-1.665,2.872-3.371,5.721-5.09,8.633-2.253-2.339-2.368-4.4-.59-7.006,1.106-1.622,2.1-3.45,3.122-5.195a6.513,6.513,0,0,1,6.172-3.435c3.187.058,6.377.013,9.9.013-.811,1.384-1.464,2.509-2.127,3.629q-10.335,17.452-20.681,34.9a9.285,9.285,0,0,1-7.411,4.82c-3.046.245-6.129.052-9.228.052,1.129-3.4,1.686-3.807,4.975-3.828a34.771,34.771,0,0,0,3.837-.159,5.41,5.41,0,0,0,4.179-2.7,51.643,51.643,0,0,1,2.713-4.561" transform="translate(-183.975 -458.187)" fill="#e90142"/>
      </g>
    </g>
    <g id="Groupe_101" data-name="Groupe 101" transform="translate(245.95 503.556)">
      <g id="Groupe_100" data-name="Groupe 100" transform="translate(0 0)">
        <path id="Tracé_32" data-name="Tracé 32" d="M692.309,710.74v5.453h-1.228V710.74h-1.653v-1.074h4.533v1.074Z" transform="translate(-689.428 -709.156)" fill="#e90142"/>
        <path id="Tracé_33" data-name="Tracé 33" d="M716.539,719.861c-.869-.172-1.3.391-1.3,1.708v1.937h-1.209v-4.742h1.143a6.337,6.337,0,0,1-.085.954h.019a1.411,1.411,0,0,1,1.492-1.05Z" transform="translate(-709.418 -716.465)" fill="#e90142"/>
        <path id="Tracé_34" data-name="Tracé 34" d="M732.156,723.5a5.5,5.5,0,0,1,.047-.8l-.009-.009a1.59,1.59,0,0,1-1.5.906,1.271,1.271,0,0,1-1.341-1.355c0-1.126,1.068-1.651,2.711-1.651v-.172c0-.572-.217-.83-.841-.83a3.973,3.973,0,0,0-1.416.325l-.2-.935a5.051,5.051,0,0,1,1.776-.324c1.454,0,1.888.611,1.888,1.67v1.956c0,.382.01.83.038,1.221Zm-.095-2.108c-1.218,0-1.549.305-1.549.715a.538.538,0,0,0,.567.554,1.081,1.081,0,0,0,.982-1.145Z" transform="translate(-721.87 -716.456)" fill="#e90142"/>
        <path id="Tracé_35" data-name="Tracé 35" d="M756.446,723.951H755.01l-1.615-4.742h1.3l.755,2.29c.132.448.227.8.3,1.183h.018c.076-.372.161-.735.284-1.174l.737-2.3h1.275Z" transform="translate(-741.409 -716.91)" fill="#e90142"/>
        <path id="Tracé_36" data-name="Tracé 36" d="M783.683,721.4h-2.9a1.124,1.124,0,0,0,1.294,1.278,3.637,3.637,0,0,0,1.36-.277l.132.925a5.017,5.017,0,0,1-1.7.306c-1.483,0-2.314-.753-2.314-2.423a2.26,2.26,0,0,1,2.229-2.509,1.808,1.808,0,0,1,1.946,2.013,4.418,4.418,0,0,1-.047.687m-1.965-1.8c-.5,0-.86.372-.926.992h1.738c.018-.649-.3-.992-.813-.992" transform="translate(-762.667 -716.497)" fill="#e90142"/>
        <rect id="Rectangle_8" data-name="Rectangle 8" width="1.209" height="6.964" transform="translate(22.074 0.076)" fill="#e90142"/>
        <path id="Tracé_37" data-name="Tracé 37" d="M836.712,713.468c-.1-.079-.2-.154-.284-.221a3.869,3.869,0,0,1-2.456.84,1.877,1.877,0,0,1-2.144-1.889,2.518,2.518,0,0,1,1.2-1.984,2.572,2.572,0,0,1-.8-1.7c0-.849.661-1.574,1.88-1.574,1.086,0,1.681.563,1.681,1.4a2.344,2.344,0,0,1-1.124,1.841,20.391,20.391,0,0,0,1.71,1.526v.009a3.7,3.7,0,0,0,.567-2.108h0a1.073,1.073,0,0,1,1.021,1.373,4.3,4.3,0,0,1-.682,1.394c.416.315.9.668,1.238.9h0A1.319,1.319,0,0,1,836.712,713.468Zm-2.975-2.53a1.488,1.488,0,0,0-.652,1.107,1.018,1.018,0,0,0,1.1,1,2.244,2.244,0,0,0,1.36-.468,23.6,23.6,0,0,1-1.8-1.641m.274-3.081a.571.571,0,0,0-.6.591,1.734,1.734,0,0,0,.539,1.049,1.461,1.461,0,0,0,.642-1.068.533.533,0,0,0-.586-.572" transform="translate(-805.145 -706.941)" fill="#e90142"/>
        <path id="Tracé_38" data-name="Tracé 38" d="M885.566,711.206v5.381h-1.228v-5.381h-1.653v-1.059h4.533v1.059Z" transform="translate(-846.472 -709.546)" fill="#e90142"/>
        <path id="Tracé_39" data-name="Tracé 39" d="M906.612,723.633c-1.332,0-2.2-.7-2.2-2.385a2.373,2.373,0,0,1,2.4-2.547c1.341,0,2.2.744,2.2,2.376a2.392,2.392,0,0,1-2.4,2.557m.113-3.9c-.538,0-1.067.42-1.067,1.393s.359,1.469,1.049,1.469c.595,0,1.058-.487,1.058-1.45,0-.916-.331-1.411-1.039-1.411" transform="translate(-864.127 -716.497)" fill="#e90142"/>
        <path id="Tracé_40" data-name="Tracé 40" d="M937.047,723.951a5.323,5.323,0,0,1,.056-.849h-.009a1.711,1.711,0,0,1-1.6.945c-1.058,0-1.4-.678-1.4-1.508v-3.33h1.2v3.034c0,.487.132.782.586.782.614,0,1.086-.7,1.086-1.526v-2.29h1.209v4.742Z" transform="translate(-888.252 -716.91)" fill="#e90142"/>
        <path id="Tracé_41" data-name="Tracé 41" d="M965.342,719.861c-.869-.172-1.3.391-1.3,1.708v1.937H962.83v-4.742h1.143a6.319,6.319,0,0,1-.085.954h.019a1.411,1.411,0,0,1,1.492-1.05Z" transform="translate(-911.599 -716.465)" fill="#e90142"/>
        <path id="Tracé_42" data-name="Tracé 42" d="M980.716,709.029a.735.735,0,0,1-.746-.734.751.751,0,1,1,.746.734m-.6.706h1.209v4.742h-1.209Z" transform="translate(-925.527 -707.437)" fill="#e90142"/>
        <path id="Tracé_43" data-name="Tracé 43" d="M993.835,723.593a4.009,4.009,0,0,1-1.048-.124l.085-1.021a2.6,2.6,0,0,0,1,.191c.453,0,.756-.2.756-.515,0-.84-1.908-.344-1.908-1.956,0-.84.633-1.517,1.993-1.517a4.306,4.306,0,0,1,.85.1l-.056.954a3.057,3.057,0,0,0-.85-.124c-.472,0-.689.191-.689.487,0,.8,1.936.4,1.936,1.956,0,.945-.822,1.574-2.068,1.574" transform="translate(-935.888 -716.457)" fill="#e90142"/>
        <path id="Tracé_44" data-name="Tracé 44" d="M1020.817,723.538v-3c0-.506-.114-.821-.557-.821-.529,0-1.077.62-1.077,1.546v2.27h-1.19v-3.005c0-.467-.094-.811-.557-.811-.558,0-1.077.659-1.077,1.546v2.27h-1.209V718.8h1.143a6.967,6.967,0,0,1-.057.849l.01.01a1.679,1.679,0,0,1,1.549-.954,1.21,1.21,0,0,1,1.294.944,1.673,1.673,0,0,1,1.53-.944c.906,0,1.407.506,1.407,1.574v3.263Z" transform="translate(-954.115 -716.497)" fill="#e90142"/>
      </g>
    </g>
    <g id="Groupe_103" data-name="Groupe 103" transform="translate(187.69 456.69)">
      <g id="Groupe_102" data-name="Groupe 102">
        <path id="Tracé_45" data-name="Tracé 45" d="M401.034,456.837a22.141,22.141,0,0,1,15.912,6.413,21.241,21.241,0,0,1,0,30.893,23.055,23.055,0,0,1-31.8,0,21.3,21.3,0,0,1,0-30.893A22.046,22.046,0,0,1,401.034,456.837Zm0,8.678a12.56,12.56,0,0,0-9.336,3.9,12.846,12.846,0,0,0-3.818,9.306,13.181,13.181,0,0,0,26.363,0,12.8,12.8,0,0,0-3.845-9.306A12.653,12.653,0,0,0,401.034,465.515Z" transform="translate(-378.517 -456.837)" fill="#e90142"/>
        <path id="Tracé_46" data-name="Tracé 46" d="M638.784,460.332a8.277,8.277,0,0,1-2.592,6.14,8.632,8.632,0,0,1-6.27,2.538H621v34.332a9.106,9.106,0,0,1-6.6-2.7,8.735,8.735,0,0,1-2.759-6.468V469.011h-8.917a8.632,8.632,0,0,1-6.27-2.538,8.278,8.278,0,0,1-2.592-6.14Z" transform="translate(-553.509 -459.677)" fill="#e90142"/>
        <path id="Tracé_47" data-name="Tracé 47" d="M853.812,478.724V500.5H831.184a22.238,22.238,0,0,1-15.912-6.359,21.242,21.242,0,0,1,0-30.893,22.982,22.982,0,0,1,31.853,0A20.663,20.663,0,0,1,853.812,478.724Zm-9.475,13.1v-13.1a12.833,12.833,0,0,0-3.827-9.306,13.165,13.165,0,0,0-18.711,0,12.833,12.833,0,0,0-3.826,9.306,13.1,13.1,0,0,0,13.181,13.1Z" transform="translate(-728.018 -456.837)" fill="#e90142"/>
      </g>
    </g>
    <g id="Groupe_105" data-name="Groupe 105" transform="translate(308.483 457.71)">
      <g id="Groupe_104" data-name="Groupe 104">
        <path id="Tracé_48" data-name="Tracé 48" d="M1026.69,469h-.381a.406.406,0,0,0-.049-.009,3.193,3.193,0,0,1-1.4-.42,3.314,3.314,0,0,1-1.676-2.4c-.02-.113-.029-.228-.044-.342v-.381a.47.47,0,0,0,.01-.054,3.176,3.176,0,0,1,.384-1.331,3.315,3.315,0,0,1,2.433-1.74c.113-.02.229-.029.343-.044h.381a.442.442,0,0,0,.049.009,3.161,3.161,0,0,1,1.269.35,3.316,3.316,0,0,1,1.808,2.468c.02.113.029.228.044.343v.381a.43.43,0,0,0-.01.049,3.214,3.214,0,0,1-.471,1.489,3.313,3.313,0,0,1-2.346,1.588C1026.92,468.976,1026.8,468.986,1026.69,469Zm-.191-6.161a2.8,2.8,0,1,0,2.8,2.767A2.806,2.806,0,0,0,1026.5,462.839Z" transform="translate(-1023.14 -462.281)" fill="#e90142"/>
        <path id="Tracé_49" data-name="Tracé 49" d="M1035.029,472.837a.279.279,0,0,0,.026.018,1.233,1.233,0,0,1,.528.486c.243.359.475.726.717,1.1-.03,0-.045.005-.061.005-.2,0-.4,0-.6,0a.077.077,0,0,1-.078-.046c-.174-.3-.345-.609-.527-.908a2.785,2.785,0,0,0-.267-.351.569.569,0,0,0-.41-.213c-.167-.009-.335-.012-.508-.018v1.533h-.577v-3.6h.38c.39,0,.78,0,1.17.01a1.8,1.8,0,0,1,.657.111.958.958,0,0,1,.559.983,1.032,1.032,0,0,1-.843.863Zm-1.177-1.5v1.088l.031,0c.3,0,.6,0,.895-.014a1.207,1.207,0,0,0,.316-.061.489.489,0,0,0,.336-.425.5.5,0,0,0-.293-.517.889.889,0,0,0-.364-.072C1034.467,471.336,1034.162,471.337,1033.852,471.337Z" transform="translate(-1031.374 -469.236)" fill="#e90142"/>
      </g>
    </g>
  </g>
</svg>
